static_grf.mot
version=1
nRows=30
nColumns 19
inDegrees=yes
endheader
time	1_ground_force_vx	1_ground_force_vy	1_ground_force_vz	1_ground_force_px	1_ground_force_py	1_ground_force_pz	1_ground_torque_x	1_ground_torque_y	1_ground_torque_z	2_ground_force_vx	2_ground_force_vy	2_ground_force_vz	2_ground_force_px	2_ground_force_py	2_ground_force_pz	2_ground_torque_x	2_ground_torque_y	2_ground_torque_z
            0.810000	           -2.906865	          262.855508	           -5.560930	           -0.332324	            0.006424	           -0.456346	           -0.011100	            1.003685	           -0.021234	            1.838945	          296.096892	            7.812963	           -0.330044	            0.005109	           -0.646427	           -0.002257	           -0.363447	           -0.009590
            0.810500	           -2.907371	          263.757456	           -5.694632	           -0.331698	            0.006420	           -0.455395	           -0.010992	            0.997232	           -0.021531	            1.742649	          296.832675	            7.956415	           -0.329737	            0.005112	           -0.646954	           -0.002146	           -0.365529	           -0.009798
            0.811000	           -2.907287	          262.676059	           -5.745126	           -0.331958	            0.006422	           -0.455943	           -0.011090	            1.001962	           -0.021914	            1.699143	          295.911574	            8.000078	           -0.330359	            0.005109	           -0.646754	           -0.002049	           -0.356782	           -0.009646
            0.811500	           -2.723427	          262.495012	           -5.562931	           -0.332357	            0.006424	           -0.456334	           -0.010512	            1.013166	           -0.021472	            1.883219	          296.833016	            8.003283	           -0.330175	            0.005111	           -0.647084	           -0.002831	           -0.446260	           -0.012032
            0.812000	           -2.723460	          262.675308	           -5.562158	           -0.332077	            0.006425	           -0.456696	           -0.010284	            0.991839	           -0.021002	            1.654204	          295.359653	            7.810414	           -0.330164	            0.005107	           -0.645830	           -0.001747	           -0.311895	           -0.008248
            0.812500	           -2.998764	          263.396514	           -5.604239	           -0.332063	            0.006421	           -0.455798	           -0.011372	            0.998839	           -0.021252	            1.884548	          296.464673	            8.001969	           -0.329602	            0.005112	           -0.646724	           -0.002458	           -0.386630	           -0.010436
            0.813000	           -2.677405	          262.134293	           -5.518734	           -0.332193	            0.006425	           -0.456606	           -0.011039	            1.080781	           -0.022754	            1.746595	          295.728105	            7.858616	           -0.330229	            0.005108	           -0.646130	           -0.002138	           -0.362045	           -0.009621
            0.813500	           -2.540250	          262.315205	           -5.655870	           -0.331815	            0.006426	           -0.456774	           -0.010390	            1.072908	           -0.023133	            1.606046	          295.727597	            7.858676	           -0.330039	            0.005108	           -0.646193	           -0.001918	           -0.353134	           -0.009384
            0.814000	           -2.815227	          262.495191	           -5.608559	           -0.332233	            0.006426	           -0.456770	           -0.010397	            0.969445	           -0.020713	            1.696423	          296.648639	            7.861922	           -0.329927	            0.005111	           -0.646837	           -0.001943	           -0.339796	           -0.009005
            0.814500	           -2.907237	          261.774897	           -5.794847	           -0.332445	            0.006426	           -0.456928	           -0.010876	            0.979290	           -0.021678	            1.745307	          296.096052	            7.953787	           -0.329786	            0.005110	           -0.646237	           -0.002336	           -0.396240	           -0.010644
            0.815000	           -2.861232	          262.135044	           -5.701703	           -0.332160	            0.006426	           -0.456778	           -0.010574	            0.968718	           -0.021071	            1.557846	          296.095877	            7.813082	           -0.330172	            0.005109	           -0.646425	           -0.001839	           -0.349507	           -0.009222
            0.815500	           -2.907695	          263.037180	           -5.881148	           -0.331898	            0.006421	           -0.455687	           -0.010514	            0.951097	           -0.021265	            1.840336	          295.728109	            7.952433	           -0.330414	            0.005107	           -0.646133	           -0.002722	           -0.437338	           -0.011760
            0.816000	           -2.769501	          263.756893	           -5.557406	           -0.331393	            0.006418	           -0.455015	           -0.010317	            0.982576	           -0.020703	            1.652252	          295.911740	            7.906241	           -0.330232	            0.005109	           -0.646500	           -0.001996	           -0.357543	           -0.009553
            0.816500	           -2.953209	          261.234514	           -5.888764	           -0.332368	            0.006427	           -0.457218	           -0.011053	            0.977717	           -0.022040	            1.839692	          295.912082	            8.000018	           -0.330355	            0.005107	           -0.645995	           -0.002571	           -0.413577	           -0.011181
            0.817000	           -2.907255	          262.495763	           -5.745899	           -0.331958	            0.006424	           -0.456438	           -0.010877	            0.982052	           -0.021497	            1.840254	          295.728778	            7.764720	           -0.330228	            0.005108	           -0.646131	           -0.002364	           -0.379859	           -0.009974
            0.817500	           -2.816560	          262.317315	           -6.159603	           -0.332500	            0.006425	           -0.456572	           -0.011218	            1.044745	           -0.024532	            1.980160	          295.913259	            7.812246	           -0.330164	            0.005108	           -0.646313	           -0.002806	           -0.419273	           -0.011069
            0.818000	           -2.953178	          262.315715	           -5.792414	           -0.332248	            0.006424	           -0.456440	           -0.010921	            0.970080	           -0.021421	            1.793548	          295.727437	            8.093237	           -0.330226	            0.005108	           -0.646258	           -0.002329	           -0.383985	           -0.010509
            0.818500	           -2.678153	          262.496004	           -5.792324	           -0.331768	            0.006424	           -0.456446	           -0.010901	            1.068431	           -0.023576	            1.605402	          295.911571	            7.906261	           -0.330231	            0.005107	           -0.646056	           -0.002001	           -0.368861	           -0.009855
            0.819000	           -2.815877	          262.316135	           -5.884467	           -0.332144	            0.006424	           -0.456457	           -0.011395	            1.061555	           -0.023814	            1.742587	          296.833178	            7.815631	           -0.329990	            0.005112	           -0.647082	           -0.002295	           -0.390960	           -0.010294
            0.819500	           -3.044703	          262.675836	           -5.698929	           -0.332062	            0.006422	           -0.455933	           -0.010499	            0.905812	           -0.019652	            1.840295	          295.728443	            7.858577	           -0.330289	            0.005108	           -0.646322	           -0.002538	           -0.407820	           -0.010837
            0.820000	           -2.769043	          262.494610	           -5.471105	           -0.332365	            0.006422	           -0.455890	           -0.010606	            1.005369	           -0.020955	            1.650964	          296.279687	            8.001412	           -0.330045	            0.005110	           -0.646670	           -0.002086	           -0.374432	           -0.010112
            0.820500	           -2.907123	          261.774700	           -5.748991	           -0.332016	            0.006425	           -0.456705	           -0.010594	            0.953959	           -0.020950	            1.652834	          295.728269	            7.717872	           -0.330101	            0.005109	           -0.646320	           -0.002105	           -0.376572	           -0.009828
            0.821000	           -2.952738	          261.774298	           -5.657165	           -0.332027	            0.006426	           -0.456977	           -0.010650	            0.944193	           -0.020405	            1.608040	          295.175114	            7.856705	           -0.330540	            0.005105	           -0.645778	           -0.001948	           -0.357656	           -0.009520
            0.821500	           -2.815212	          263.035822	           -5.560384	           -0.331738	            0.006421	           -0.455637	           -0.010820	            1.010968	           -0.021371	            1.887166	          295.728445	            7.905485	           -0.330163	            0.005108	           -0.646195	           -0.002504	           -0.392349	           -0.010488
            0.822000	           -2.723541	          262.495208	           -5.608787	           -0.332139	            0.006423	           -0.456200	           -0.010740	            1.035078	           -0.022117	            1.699163	          295.911407	            8.047006	           -0.330102	            0.005109	           -0.646310	           -0.002180	           -0.379722	           -0.010326
            0.822500	           -2.769366	          261.774333	           -5.657621	           -0.332567	            0.006426	           -0.456975	           -0.010518	            0.994179	           -0.021487	            1.835102	          297.200626	            8.145402	           -0.329864	            0.005114	           -0.647504	           -0.002649	           -0.428981	           -0.011757
            0.823000	           -2.769546	          262.135061	           -5.701931	           -0.332427	            0.006425	           -0.456562	           -0.010651	            1.008139	           -0.021929	            1.793486	          295.727939	            7.952453	           -0.329972	            0.005109	           -0.646385	           -0.002347	           -0.386975	           -0.010406
            0.823500	           -2.998192	          262.134034	           -5.472082	           -0.332475	            0.006424	           -0.456453	           -0.010644	            0.930604	           -0.019426	            1.936030	          295.175964	            7.950422	           -0.329897	            0.005108	           -0.645972	           -0.002715	           -0.414012	           -0.011151
            0.824000	           -2.723622	          262.315170	           -5.655415	           -0.332063	            0.006422	           -0.456059	           -0.010697	            1.030215	           -0.022211	            1.558613	          295.910900	            8.047066	           -0.330233	            0.005109	           -0.646563	           -0.001813	           -0.344192	           -0.009360
            0.824500	           -2.952741	          263.035795	           -5.560043	           -0.331837	            0.006420	           -0.455422	           -0.010742	            0.956894	           -0.020227	            1.699040	          295.912411	            7.765437	           -0.330297	            0.005108	           -0.646373	           -0.001974	           -0.343851	           -0.009023
